<svg width="40" height="40" viewBox="0 0 40 40" fill="none" xmlns="http://www.w3.org/2000/svg">
<path d="M31.2656 20.3288L28.7176 17.7808C28.634 17.6971 28.5347 17.6306 28.4254 17.5853C28.3161 17.5399 28.1989 17.5166 28.0806 17.5166C27.9623 17.5166 27.8451 17.5399 27.7358 17.5853C27.6265 17.6306 27.5272 17.6971 27.4436 17.7808L19.6576 25.5668C19.0283 26.1946 18.5995 26.9951 18.4256 27.8668L18.0026 29.9818C17.9733 30.1273 17.9804 30.2777 18.0233 30.4197C18.0662 30.5618 18.1436 30.691 18.2485 30.7959C18.3534 30.9008 18.4826 30.9782 18.6247 31.0211C18.7667 31.064 18.9171 31.0711 19.0626 31.0418L21.1776 30.6188C22.0493 30.4449 22.8498 30.0161 23.4776 29.3868L31.2636 21.6008C31.4324 21.4323 31.5274 21.2037 31.5278 20.9652C31.5282 20.7267 31.4339 20.4978 31.2656 20.3288ZM22.2056 28.1148C21.8286 28.4925 21.348 28.7497 20.8246 28.8538L20.0346 29.0118L20.1926 28.2218C20.2967 27.6984 20.5539 27.2178 20.9316 26.8408L28.0806 19.6918L29.3546 20.9658L22.2056 28.1148Z" fill="#D8D9E8" stroke="#2F3047"/>
<path d="M15.2127 29.26H11.1688C10.9301 29.26 10.7011 29.1652 10.5324 28.9964C10.3636 28.8276 10.2687 28.5987 10.2687 28.36V10.7C10.2687 10.4613 10.3636 10.2324 10.5324 10.0636C10.7011 9.89482 10.9301 9.8 11.1688 9.8H19.2788V12.5C19.2803 13.2156 19.5653 13.9014 20.0713 14.4074C20.5773 14.9134 21.2632 15.1984 21.9788 15.2H24.6787V15.813C24.6787 16.0517 24.7736 16.2806 24.9424 16.4494C25.1111 16.6182 25.3401 16.713 25.5788 16.713C25.8174 16.713 26.0464 16.6182 26.2151 16.4494C26.3839 16.2806 26.4788 16.0517 26.4788 15.813V14.306C26.4778 14.0672 26.383 13.8384 26.2148 13.669L20.8147 8.269C20.6466 8.0995 20.4185 8.00288 20.1798 8H11.1688C10.4532 8.00158 9.76732 8.28656 9.26131 8.79256C8.75531 9.29857 8.47033 9.9844 8.46875 10.7V28.359C8.47033 29.0746 8.75531 29.7604 9.26131 30.2664C9.76732 30.7724 10.4532 31.0574 11.1688 31.059H15.2127C15.4514 31.059 15.6804 30.9642 15.8491 30.7954C16.0179 30.6266 16.1128 30.3977 16.1128 30.159C16.1128 29.9203 16.0179 29.6914 15.8491 29.5226C15.6804 29.3538 15.4514 29.259 15.2127 29.259V29.26ZM21.9808 13.4C21.7421 13.4 21.5131 13.3052 21.3444 13.1364C21.1756 12.9676 21.0808 12.7387 21.0808 12.5V11.076L23.4097 13.4H21.9808Z" fill="#D8D9E8" stroke="#2F3047"/>
<path d="M22.8818 17.5479C22.8818 17.3092 22.787 17.0803 22.6182 16.9116C22.4494 16.7428 22.2205 16.6479 21.9818 16.6479H12.9718C12.7331 16.6479 12.5042 16.7428 12.3354 16.9116C12.1666 17.0803 12.0718 17.3092 12.0718 17.5479C12.0718 17.7866 12.1666 18.0156 12.3354 18.1843C12.5042 18.3531 12.7331 18.448 12.9718 18.448H21.9798C22.0981 18.4482 22.2154 18.4251 22.3248 18.38C22.4342 18.3349 22.5337 18.2687 22.6175 18.1851C22.7013 18.1015 22.7677 18.0021 22.8131 17.8928C22.8584 17.7835 22.8818 17.6663 22.8818 17.5479Z" fill="#D8D9E8" stroke="#2F3047"/>
<path d="M12.9718 20.251C12.7331 20.251 12.5042 20.3458 12.3354 20.5146C12.1666 20.6834 12.0718 20.9123 12.0718 21.151C12.0718 21.3897 12.1666 21.6186 12.3354 21.7874C12.5042 21.9562 12.7331 22.051 12.9718 22.051H20.2518C20.4905 22.051 20.7194 21.9562 20.8882 21.7874C21.057 21.6186 21.1518 21.3897 21.1518 21.151C21.1518 20.9123 21.057 20.6834 20.8882 20.5146C20.7194 20.3458 20.4905 20.251 20.2518 20.251H12.9718Z" fill="#D8D9E8" stroke="#2F3047"/>
<path d="M16.8448 23.855H12.9718C12.7331 23.855 12.5042 23.9498 12.3354 24.1186C12.1666 24.2874 12.0718 24.5163 12.0718 24.755C12.0718 24.9937 12.1666 25.2226 12.3354 25.3914C12.5042 25.5602 12.7331 25.655 12.9718 25.655H16.8438C17.0825 25.655 17.3114 25.5602 17.4802 25.3914C17.649 25.2226 17.7438 24.9937 17.7438 24.755C17.7438 24.5163 17.649 24.2874 17.4802 24.1186C17.3114 23.9498 17.0825 23.855 16.8438 23.855H16.8448Z" fill="#D8D9E8" stroke="#2F3047"/>
</svg>
