<svg width="40" height="40" viewBox="0 0 40 40" fill="none" xmlns="http://www.w3.org/2000/svg">
<path d="M31.1811 16.0182L25.7481 10.5852C25.579 10.3885 25.3724 10.2275 25.1405 10.1114C24.9085 9.99536 24.6558 9.92661 24.3971 9.90918C23.7811 9.90918 23.0621 10.3772 23.0621 11.6972V13.5472C19.0066 13.7284 15.1774 15.467 12.3717 18.4009C9.56603 21.3347 8.00013 25.2377 8.00006 29.2972C7.99818 29.4456 8.04352 29.5907 8.12951 29.7116C8.21551 29.8326 8.33771 29.9231 8.47848 29.97C8.61925 30.017 8.77131 30.018 8.91269 29.9729C9.05407 29.9278 9.17746 29.839 9.26506 29.7192C10.8752 27.5551 12.9516 25.7811 15.3404 24.5285C17.7293 23.2759 20.3694 22.5769 23.0651 22.4832V24.3052C23.0651 25.6252 23.7841 26.0932 24.4001 26.0932C24.6588 26.0758 24.9115 26.007 25.1435 25.8909C25.3754 25.7749 25.582 25.6138 25.7511 25.4172L31.1841 19.9842C31.7086 19.4575 32.0031 18.7445 32.0031 18.0012C32.0031 17.2579 31.7086 16.5448 31.1841 16.0182H31.1811Z" stroke="#D8D9E8"/>
</svg>
