<svg width="40" height="40" viewBox="0 0 40 40" fill="none" xmlns="http://www.w3.org/2000/svg">
<path d="M31.3379 18.082C31.1929 15.7423 30.3664 13.4963 28.9604 11.6207C27.5544 9.74503 25.6302 8.32182 23.4252 7.52647C21.2201 6.73112 18.8305 6.59839 16.5509 7.14464C14.2714 7.69089 12.2015 8.89224 10.5964 10.6006C8.99126 12.309 7.92114 14.4497 7.51791 16.7589C7.11468 19.068 7.39597 21.4447 8.3271 23.596C9.25823 25.7472 10.7985 27.579 12.758 28.8655C14.7176 30.152 17.0108 30.8369 19.3549 30.836H25.8379C27.296 30.8341 28.6939 30.2541 29.7249 29.223C30.756 28.192 31.336 26.7941 31.3379 25.336V18.176V18.082ZM28.3379 25.336C28.3379 25.999 28.0745 26.6349 27.6056 27.1037C27.1368 27.5726 26.5009 27.836 25.8379 27.836H19.3549C18.0843 27.8352 16.8282 27.5667 15.6685 27.0479C14.5087 26.5291 13.4713 25.7716 12.6239 24.825C11.7727 23.879 11.1337 22.762 10.7496 21.5488C10.3655 20.3357 10.2452 19.0544 10.3969 17.791C10.6361 15.7991 11.5313 13.9435 12.9413 12.5165C14.3513 11.0895 16.1961 10.1721 18.1849 9.90897C18.574 9.86041 18.9657 9.83603 19.3579 9.83597C21.454 9.82997 23.4855 10.5613 25.0969 11.902C26.0362 12.6823 26.8077 13.6449 27.3648 14.7316C27.9218 15.8184 28.2528 17.0067 28.3379 18.225V25.336Z" fill="#D8D9E8" stroke="#2F3047" stroke-width="2"/>
<path d="M16.8379 17.8359H19.8379C20.2357 17.8359 20.6172 17.6779 20.8986 17.3966C21.1799 17.1153 21.3379 16.7338 21.3379 16.3359C21.3379 15.9381 21.1799 15.5566 20.8986 15.2753C20.6172 14.994 20.2357 14.8359 19.8379 14.8359H16.8379C16.4401 14.8359 16.0585 14.994 15.7772 15.2753C15.4959 15.5566 15.3379 15.9381 15.3379 16.3359C15.3379 16.7338 15.4959 17.1153 15.7772 17.3966C16.0585 17.6779 16.4401 17.8359 16.8379 17.8359Z" fill="#D8D9E8" stroke="#2F3047" stroke-width="2"/>
<path d="M23.8379 19.8359H16.8379C16.4401 19.8359 16.0585 19.994 15.7772 20.2753C15.4959 20.5566 15.3379 20.9381 15.3379 21.3359C15.3379 21.7338 15.4959 22.1153 15.7772 22.3966C16.0585 22.6779 16.4401 22.8359 16.8379 22.8359H23.8379C24.2357 22.8359 24.6172 22.6779 24.8986 22.3966C25.1799 22.1153 25.3379 21.7338 25.3379 21.3359C25.3379 20.9381 25.1799 20.5566 24.8986 20.2753C24.6172 19.994 24.2357 19.8359 23.8379 19.8359Z" fill="#D8D9E8" stroke="#2F3047" stroke-width="2"/>
</svg>
