<svg width="40" height="40" viewBox="0 0 40 40" fill="none" xmlns="http://www.w3.org/2000/svg">
<path d="M31.064 14.362H28.437V8.938C28.4371 8.81487 28.413 8.69292 28.366 8.57912C28.3189 8.46532 28.2499 8.36191 28.1629 8.27479C28.0759 8.18768 27.9726 8.11857 27.8588 8.07142C27.7451 8.02427 27.6231 8 27.5 8H12.5C12.2515 8 12.0132 8.09872 11.8374 8.27444C11.6617 8.45016 11.563 8.68849 11.563 8.937V14.356H8.937C8.6884 14.3563 8.45007 14.4552 8.27438 14.6311C8.09869 14.807 8 15.0454 8 15.294V31.063C8 31.3115 8.09872 31.5498 8.27444 31.7256C8.45016 31.9013 8.68849 32 8.937 32H31.062C31.3105 31.9997 31.5488 31.901 31.7246 31.7253C31.9004 31.5497 31.9995 31.3115 32 31.063V15.3C31.9997 15.0517 31.9011 14.8137 31.7256 14.6381C31.5502 14.4625 31.3123 14.3635 31.064 14.363V14.362ZM13.437 9.875H26.562V20.9L20 26.459L13.437 20.9V9.875ZM9.875 16.231H11.562V19.308L9.875 17.878V16.231ZM9.875 20.331L15.01 24.688L9.875 29.039V20.331ZM11.494 30.12L16.46 25.917L19.394 28.4C19.5633 28.5436 19.778 28.6223 20 28.6223C20.222 28.6223 20.4367 28.5436 20.606 28.4L23.54 25.914L28.506 30.123L11.494 30.12ZM30.125 29.034L24.99 24.688L30.125 20.336V29.034ZM30.125 17.873L28.438 19.303V16.233H30.126L30.125 17.873Z" fill="#D8D9E8" stroke="#2F3047"/>
<path d="M16.6252 14.563H23.3752C23.6185 14.555 23.8492 14.4528 24.0185 14.2778C24.1879 14.1029 24.2825 13.869 24.2825 13.6255C24.2825 13.382 24.1879 13.1481 24.0185 12.9731C23.8492 12.7982 23.6185 12.6959 23.3752 12.688H16.6252C16.3818 12.6959 16.1511 12.7982 15.9818 12.9731C15.8124 13.1481 15.7178 13.382 15.7178 13.6255C15.7178 13.869 15.8124 14.1029 15.9818 14.2778C16.1511 14.4528 16.3818 14.555 16.6252 14.563Z" fill="#D8D9E8" stroke="#2F3047"/>
<path d="M24.3121 18.313C24.3121 18.0645 24.2134 17.8261 24.0377 17.6504C23.862 17.4747 23.6237 17.376 23.3752 17.376H16.6252C16.3818 17.3839 16.1511 17.4862 15.9818 17.6611C15.8124 17.8361 15.7178 18.07 15.7178 18.3135C15.7178 18.5569 15.8124 18.7909 15.9818 18.9658C16.1511 19.1408 16.3818 19.243 16.6252 19.251H23.3752C23.4983 19.251 23.6202 19.2267 23.7339 19.1796C23.8477 19.1324 23.951 19.0633 24.0381 18.9762C24.1251 18.8891 24.1941 18.7856 24.2411 18.6718C24.2881 18.558 24.3123 18.4361 24.3121 18.313Z" fill="#D8D9E8" stroke="#2F3047"/>
</svg>
