<svg width="24" height="24" viewBox="0 0 24 24" fill="none" xmlns="http://www.w3.org/2000/svg">
<g opacity="0.3">
<path d="M22.7 8.51085V19.9638C22.7 20.5738 22.4577 21.1589 22.0263 21.5902C21.595 22.0215 21.01 22.2638 20.4 22.2638H16.569C16.1622 22.2638 15.772 22.1022 15.4843 21.8145C15.1966 21.5269 15.035 21.1367 15.035 20.7298V16.5108C15.035 16.3074 14.9542 16.1123 14.8104 15.9685C14.6665 15.8247 14.4714 15.7438 14.268 15.7438H10.435C10.2316 15.7438 10.0365 15.8247 9.89265 15.9685C9.74881 16.1123 9.668 16.3074 9.668 16.5108V20.7308C9.668 21.1377 9.50638 21.5279 9.2187 21.8155C8.93102 22.1032 8.54084 22.2648 8.134 22.2648H4.3C3.69 22.2648 3.10499 22.0225 2.67365 21.5912C2.24232 21.1599 2 20.5748 2 19.9648V8.51085C2.00094 8.2463 2.06998 7.98644 2.20046 7.75631C2.33094 7.52617 2.51847 7.3335 2.745 7.19685L11.563 1.91085C11.8014 1.76789 12.0741 1.69238 12.352 1.69238C12.6299 1.69238 12.9026 1.76789 13.141 1.91085L21.959 7.20185C22.1841 7.33855 22.3703 7.53064 22.5001 7.75979C22.6298 7.98895 22.6986 8.24753 22.7 8.51085Z" fill="#000000"/>
</g>
</svg>
