<svg width="24" height="24" viewBox="0 0 24 24" fill="none" xmlns="http://www.w3.org/2000/svg">
<g opacity="0.3">
<path d="M11.868 11.6158C12.5335 11.625 13.1939 11.4983 13.8088 11.2435C14.4237 10.9887 14.9801 10.6111 15.444 10.1338C15.9212 9.66985 16.2988 9.11342 16.5536 8.49856C16.8084 7.8837 16.9351 7.22332 16.926 6.55781C16.9351 5.8923 16.8084 5.23192 16.5536 4.61706C16.2988 4.0022 15.9212 3.44577 15.444 2.98181C14.9744 2.51218 14.4169 2.13964 13.8034 1.88547C13.1898 1.63131 12.5322 1.50049 11.868 1.50049C11.2039 1.50049 10.5463 1.63131 9.9327 1.88547C9.31912 2.13964 8.76162 2.51218 8.29203 2.98181C7.81482 3.44577 7.43727 4.0022 7.18245 4.61706C6.92763 5.23192 6.80091 5.8923 6.81003 6.55781C6.80091 7.22332 6.92763 7.8837 7.18245 8.49856C7.43727 9.11342 7.81482 9.66985 8.29203 10.1338C8.75603 10.611 9.31246 10.9885 9.92732 11.2433C10.5422 11.4981 11.2025 11.6249 11.868 11.6158Z" fill="#000000"/>
<path d="M20.7177 17.6478C20.6848 17.2027 20.6281 16.7598 20.5477 16.3208C20.4685 15.8694 20.3596 15.4238 20.2217 14.9868C20.0821 14.5543 19.8981 14.1374 19.6727 13.7428C19.4509 13.3452 19.1723 12.9821 18.8457 12.6648C18.5018 12.3416 18.0983 12.0882 17.6577 11.9188C17.174 11.7321 16.6592 11.6388 16.1407 11.6438C15.8383 11.6763 15.5522 11.7978 15.3187 11.9928C15.0727 12.1538 14.7837 12.3388 14.4627 12.5448C14.115 12.7525 13.7428 12.9165 13.3547 13.0328C12.475 13.3249 11.5245 13.3249 10.6447 13.0328C10.257 12.9165 9.88514 12.7526 9.53775 12.5448C9.21875 12.3448 8.93075 12.1548 8.68075 11.9918C8.44726 11.7967 8.16122 11.6753 7.85875 11.6428C7.34057 11.6378 6.82616 11.7311 6.34275 11.9178C5.90208 12.0874 5.49859 12.3411 5.15475 12.6648C4.82831 12.9818 4.54973 13.3446 4.32775 13.7418C4.10171 14.1383 3.9174 14.5572 3.77775 14.9918C3.6399 15.4288 3.531 15.8744 3.45175 16.3258C3.37135 16.7647 3.3146 17.2077 3.28175 17.6528C3.25375 18.0528 3.23975 18.4718 3.23975 18.8928C3.21814 19.3805 3.29919 19.8673 3.47765 20.3218C3.65611 20.7762 3.92801 21.1881 4.27575 21.5308C5.00218 22.1946 5.96155 22.5443 6.94475 22.5038H17.0557C18.039 22.5444 18.9984 22.1946 19.7247 21.5308C20.0725 21.1879 20.3443 20.7758 20.5226 20.3212C20.7009 19.8666 20.7817 19.3796 20.7597 18.8918C20.7597 18.4688 20.7457 18.0508 20.7177 17.6508" fill="#000000"/>
</g>
</svg>
