<svg width="24" height="24" viewBox="0 0 24 24" fill="none" xmlns="http://www.w3.org/2000/svg">
<g opacity="0.3">
<path d="M23.0005 8.00002H1.00047C0.82999 8.0001 0.662325 7.9566 0.513393 7.87364C0.364462 7.79069 0.23921 7.67104 0.149535 7.52605C0.059859 7.38107 0.00873708 7.21557 0.00102416 7.04527C-0.00668876 6.87496 0.0292635 6.70552 0.105466 6.55302L2.55347 1.65302C2.80196 1.15465 3.18492 0.735726 3.65906 0.443613C4.13319 0.151501 4.67958 -0.00215241 5.23647 2.27781e-05H18.7645C19.3219 -0.00169079 19.8686 0.152709 20.3428 0.445738C20.817 0.738766 21.1997 1.15871 21.4475 1.65802L23.8955 6.55802C23.9705 6.71033 24.0055 6.87924 23.9973 7.04883C23.989 7.21842 23.9376 7.38311 23.8481 7.52737C23.7586 7.67164 23.6338 7.79073 23.4855 7.87342C23.3372 7.95611 23.1703 7.99968 23.0005 8.00002ZM2.61847 6.00002H21.3825L19.6585 2.55302C19.5761 2.38643 19.4487 2.24628 19.2906 2.14852C19.1326 2.05076 18.9503 1.99931 18.7645 2.00002H5.23647C5.05063 1.99931 4.86833 2.05076 4.71029 2.14852C4.55225 2.24628 4.42481 2.38643 4.34247 2.55302L2.61847 6.00002Z" fill="#000000"/>
<path d="M23 6H1C0.734784 6 0.48043 6.10536 0.292893 6.29289C0.105357 6.48043 0 6.73478 0 7V21C0 21.7956 0.316071 22.5587 0.87868 23.1213C1.44129 23.6839 2.20435 24 3 24H21C21.7956 24 22.5587 23.6839 23.1213 23.1213C23.6839 22.5587 24 21.7956 24 21V7C24 6.73478 23.8946 6.48043 23.7071 6.29289C23.5196 6.10536 23.2652 6 23 6ZM16.6 16.8L12.6 19.8C12.5575 19.8263 12.513 19.8494 12.467 19.869C12.4304 19.8916 12.3923 19.9116 12.353 19.929C12.2412 19.9759 12.1212 20 12 20C11.8788 20 11.7588 19.9759 11.647 19.929C11.6077 19.9116 11.5696 19.8916 11.533 19.869C11.487 19.8494 11.4425 19.8263 11.4 19.8L7.4 16.8C7.18783 16.6409 7.04756 16.404 7.01005 16.1414C6.97254 15.8789 7.04087 15.6122 7.2 15.4C7.35913 15.1878 7.59603 15.0476 7.85858 15.01C8.12113 14.9725 8.38783 15.0409 8.6 15.2L11 17V11C11 10.7348 11.1054 10.4804 11.2929 10.2929C11.4804 10.1054 11.7348 10 12 10C12.2652 10 12.5196 10.1054 12.7071 10.2929C12.8946 10.4804 13 10.7348 13 11V17L15.4 15.2C15.6122 15.0409 15.8789 14.9725 16.1414 15.01C16.404 15.0476 16.6409 15.1878 16.8 15.4C16.9591 15.6122 17.0275 15.8789 16.99 16.1414C16.9524 16.404 16.8122 16.6409 16.6 16.8Z" fill="#000000"/>
</g>
</svg>
