<svg width="40" height="50" viewBox="0 0 40 50" fill="none" xmlns="http://www.w3.org/2000/svg">
<rect y="14.4629" width="39.2562" height="35.124" fill="url(#paint0_linear_3129_3704)"/>
<path d="M38.1818 13.335H1.81818C1.57996 13.3344 1.34396 13.3808 1.12366 13.4715C0.903366 13.5621 0.703081 13.6953 0.534247 13.8634C0.365413 14.0314 0.231336 14.2311 0.13967 14.451C0.0480043 14.6709 0.000542035 14.9067 0 15.1449V47.7027C0.000542035 47.941 0.0480043 48.1768 0.13967 48.3966C0.231336 48.6165 0.365413 48.8162 0.534247 48.9843C0.703081 49.1523 0.903366 49.2855 1.12366 49.3762C1.34396 49.4668 1.57996 49.5132 1.81818 49.5127H38.1818C38.42 49.5132 38.656 49.4668 38.8763 49.3762C39.0966 49.2855 39.2969 49.1523 39.4658 48.9843C39.6346 48.8162 39.7687 48.6165 39.8603 48.3966C39.952 48.1768 39.9995 47.941 40 47.7027V15.1408C39.9978 14.6604 39.8052 14.2004 39.4643 13.8619C39.1234 13.5234 38.6622 13.3339 38.1818 13.335V13.335ZM36.3636 45.897H3.64463V16.9527H36.3636V45.897V45.897Z" fill="#2F3047"/>
<path d="M26.8531 21.5393C26.3709 21.5393 25.9085 21.7309 25.5675 22.0719C25.2265 22.4128 25.0349 22.8753 25.0349 23.3575V26.1447H14.973V23.3575C14.973 23.1187 14.9259 22.8823 14.8346 22.6617C14.7432 22.4411 14.6093 22.2407 14.4404 22.0719C14.2716 21.903 14.0712 21.7691 13.8506 21.6777C13.63 21.5863 13.3935 21.5393 13.1548 21.5393C12.916 21.5393 12.6796 21.5863 12.459 21.6777C12.2384 21.7691 12.038 21.903 11.8691 22.0719C11.7003 22.2407 11.5664 22.4411 11.475 22.6617C11.3836 22.8823 11.3366 23.1187 11.3366 23.3575V26.1447C11.3316 26.6236 11.4223 27.0987 11.6033 27.5421C11.7843 27.9856 12.0519 28.3884 12.3906 28.7271C12.7292 29.0657 13.1321 29.3334 13.5755 29.5144C14.019 29.6954 14.4941 29.786 14.973 29.781H25.0349C25.5139 29.7863 25.9892 29.6958 26.4327 29.515C26.8763 29.3341 27.2792 29.0664 27.618 28.7277C27.9567 28.389 28.2243 27.986 28.4052 27.5424C28.5861 27.0989 28.6766 26.6237 28.6713 26.1447V23.3575C28.6713 22.8753 28.4798 22.4128 28.1388 22.0719C27.7978 21.7309 27.3353 21.5393 26.8531 21.5393Z" fill="#2F3047"/>
<path d="M35.1532 6.66748H4.85774C4.37553 6.66748 3.91307 6.85903 3.5721 7.20001C3.23112 7.54098 3.03955 8.00346 3.03955 8.48567C3.03955 8.96788 3.23112 9.43034 3.5721 9.77132C3.91307 10.1123 4.37553 10.3038 4.85774 10.3038H35.1532C35.6354 10.3038 36.0979 10.1123 36.4388 9.77132C36.7798 9.43034 36.9714 8.96788 36.9714 8.48567C36.9714 8.00346 36.7798 7.54098 36.4388 7.20001C36.0979 6.85903 35.6354 6.66748 35.1532 6.66748V6.66748Z" fill="#2F3047"/>
<path d="M32.4957 0.000299848H7.52046C7.03092 -0.00687881 6.55854 0.180595 6.20715 0.521524C5.85576 0.862453 5.6541 1.32894 5.64648 1.81848C5.6541 2.30802 5.85576 2.77451 6.20715 3.11544C6.55854 3.45637 7.03092 3.64384 7.52046 3.63666H32.5019C32.9914 3.64384 33.4638 3.45637 33.8152 3.11544C34.1666 2.77451 34.3682 2.30802 34.3758 1.81848C34.3721 1.57555 34.3204 1.33575 34.2238 1.11282C34.1272 0.889886 33.9876 0.688195 33.813 0.519302C33.6383 0.350408 33.4321 0.217629 33.206 0.12857C32.98 0.0395115 32.7386 -0.00407756 32.4957 0.000299848V0.000299848Z" fill="#2F3047"/>
<defs>
<linearGradient id="paint0_linear_3129_3704" x1="19.6281" y1="14.4629" x2="19.6281" y2="49.5869" gradientUnits="userSpaceOnUse">
<stop stop-color="#A721FF"/>
<stop offset="1" stop-color="#6600FF"/>
</linearGradient>
</defs>
</svg>
